Coordinates
version=1
nRows=30
nColumns=38
inDegrees=no

Units are S.I. units (second, meters, Newtons, ...)
If the header above contains a line with 'inDegrees', this indicates whether rotational values are in degrees (yes) or radians (no).

endheader
time	pelvis_tilt	pelvis_list	pelvis_rotation	pelvis_tx	pelvis_ty	pelvis_tz	hip_flexion_r	hip_adduction_r	hip_rotation_r	knee_angle_r	ankle_angle_r	subtalar_angle_r	mtp_angle_r	hip_flexion_l	hip_adduction_l	hip_rotation_l	knee_angle_l	ankle_angle_l	subtalar_angle_l	mtp_angle_l	lumbar_extension	lumbar_bending	lumbar_rotation	arm_flex_r	arm_add_r	arm_rot_r	elbow_flex_r	pro_sup_r	wrist_flex_r	wrist_dev_r	arm_flex_l	arm_add_l	arm_rot_l	elbow_flex_l	pro_sup_l	wrist_flex_l	wrist_dev_l
1.16	-0.159678	1.31285	-1.45348	1.03713	0.252158	0.936073	-0.458194	2.94569e-07	-0.137403	0.666139	-0.333358	0	0	0.00954995	-0.0199074	-0.278978	0.279398	-0.315703	0	0	-0.379083	0.0462588	-0.04015	-0.0665712	-0.0781009	-0.668686	0.53362	0.659211	0	0	-0.207548	-0.214365	0.095649	0.630564	1.44584	0	0
1.17	-0.144377	1.31271	-1.4628	1.03816	0.24026	0.93707	-0.435251	-0.0105195	-0.138812	0.71951	-0.380838	0	0	0.00294357	-0.0156217	-0.278084	0.294534	-0.299814	0	0	-0.375736	0.0450692	-0.0470399	-0.0704626	-0.0775395	-0.673274	0.534257	0.668171	0	0	-0.206801	-0.216141	0.106181	0.627359	1.44407	0	0
1.18	-0.123076	1.31274	-1.47918	1.03903	0.228565	0.938119	-0.409227	-0.0231802	-0.140051	0.774868	-0.432341	0	0	-0.00577489	-0.00978447	-0.283208	0.306548	-0.286411	0	0	-0.372685	0.0418969	-0.0534164	-0.0733607	-0.076789	-0.67777	0.534587	0.676841	0	0	-0.205814	-0.219437	0.117775	0.626931	1.43989	0	0
1.19	-0.0992986	1.31143	-1.49984	1.03975	0.217063	0.939285	-0.382046	-0.0371869	-0.138571	0.83095	-0.479251	0	0	-0.018896	-0.00322508	-0.292867	0.314074	-0.275096	0	0	-0.371478	0.0375088	-0.0585546	-0.0754149	-0.0758374	-0.682025	0.535865	0.68279	0	0	-0.205482	-0.223654	0.128772	0.630659	1.4374	0	0
1.2	-0.0771353	1.31027	-1.52023	1.04038	0.205734	0.940355	-0.352551	-0.0512473	-0.13429	0.887582	-0.520031	0	0	-0.0339522	0.00282826	-0.305547	0.318676	-0.263209	0	0	-0.370244	0.0331722	-0.0631576	-0.0771675	-0.0748419	-0.685899	0.538488	0.688117	0	0	-0.204874	-0.228175	0.139882	0.635187	1.43351	0	0
1.21	-0.05799	1.31062	-1.53704	1.04098	0.194588	0.941157	-0.321265	-0.0636605	-0.129352	0.94301	-0.551228	0	0	-0.0481239	0.00762615	-0.317401	0.321738	-0.251222	0	0	-0.367502	0.0298195	-0.0685819	-0.0792513	-0.0739984	-0.688513	0.542183	0.693835	0	0	-0.203588	-0.232793	0.150261	0.63992	1.42756	0	0
1.22	-0.0444272	1.31227	-1.54759	1.04155	0.183719	0.941784	-0.28788	-0.0735148	-0.124559	0.996677	-0.577701	0	0	-0.0607797	0.0102783	-0.326307	0.323422	-0.240183	0	0	-0.363773	0.0282348	-0.0746876	-0.0810716	-0.0734558	-0.690032	0.546347	0.699744	0	0	-0.201379	-0.237408	0.159402	0.645368	1.41874	0	0
1.23	-0.0381657	1.31322	-1.55109	1.04202	0.17331	0.942486	-0.253704	-0.0806874	-0.119737	1.04852	-0.601142	0	0	-0.0735873	0.0103748	-0.332237	0.323242	-0.231544	0	0	-0.361724	0.0285005	-0.0805562	-0.0819025	-0.0735722	-0.690095	0.55031	0.706305	0	0	-0.198248	-0.242819	0.168811	0.651706	1.41122	0	0
1.24	-0.0396913	1.31278	-1.54741	1.04239	0.163327	0.943453	-0.219714	-0.0854623	-0.115434	1.09769	-0.612391	0	0	-0.087352	0.00802173	-0.335589	0.320769	-0.22685	0	0	-0.36206	0.0307953	-0.0857599	-0.0812154	-0.0739611	-0.690258	0.553978	0.710739	0	0	-0.193128	-0.247182	0.175198	0.657399	1.40446	0	0
1.25	-0.047077	1.3121	-1.53756	1.04274	0.153611	0.944626	-0.185906	-0.0884067	-0.112632	1.14262	-0.607266	0	0	-0.100896	0.00381064	-0.336547	0.316779	-0.22437	0	0	-0.363091	0.0348348	-0.0907669	-0.0793627	-0.0745875	-0.691082	0.556297	0.713758	0	0	-0.185863	-0.251183	0.181261	0.66102	1.39926	0	0
1.26	-0.0580943	1.31202	-1.5239	1.04305	0.144085	0.945876	-0.152476	-0.0899384	-0.11056	1.18211	-0.584835	0	0	-0.113589	-0.00146337	-0.336713	0.312197	-0.223086	0	0	-0.363699	0.039948	-0.0955207	-0.0768651	-0.075629	-0.691744	0.557135	0.71684	0	0	-0.176616	-0.25472	0.187043	0.66267	1.3952	0	0
1.27	-0.0711111	1.31115	-1.50863	1.04336	0.134796	0.947193	-0.120312	-0.0907196	-0.108767	1.21652	-0.559637	0	0	-0.12723	-0.00716761	-0.338467	0.30795	-0.22187	0	0	-0.365562	0.0455923	-0.0996592	-0.0741179	-0.0771511	-0.691204	0.5579	0.719414	0	0	-0.167059	-0.258553	0.191837	0.664787	1.39791	0	0
1.28	-0.085591	1.31044	-1.4923	1.04368	0.125558	0.948491	-0.0883216	-0.0909694	-0.107353	1.24599	-0.533447	0	0	-0.140908	-0.0128863	-0.342898	0.30521	-0.219121	0	0	-0.367151	0.0518547	-0.103028	-0.0719267	-0.0789928	-0.690434	0.559134	0.72148	0	0	-0.156478	-0.26132	0.194378	0.666512	1.40223	0	0
1.29	-0.101686	1.30974	-1.47414	1.04403	0.116317	0.949736	-0.0569876	-0.090778	-0.107417	1.2695	-0.511601	0	0	-0.15511	-0.0185869	-0.348434	0.303071	-0.214358	0	0	-0.368396	0.0588627	-0.106059	-0.0706522	-0.0807268	-0.68982	0.56136	0.722574	0	0	-0.145154	-0.263496	0.195621	0.667733	1.40939	0	0
1.3	-0.119606	1.30914	-1.45378	1.04441	0.107094	0.950873	-0.0262032	-0.0900271	-0.108861	1.28665	-0.497574	0	0	-0.169192	-0.0245847	-0.354204	0.301408	-0.208913	0	0	-0.369188	0.0666621	-0.10891	-0.0701615	-0.0824234	-0.688963	0.564351	0.723108	0	0	-0.133665	-0.265604	0.195913	0.669967	1.4169	0	0
1.31	-0.139022	1.30958	-1.43144	1.04477	0.097921	0.951797	0.00500776	-0.0886127	-0.110923	1.29784	-0.485959	0	0	-0.181626	-0.0309879	-0.359314	0.299935	-0.202531	0	0	-0.368667	0.0749513	-0.111436	-0.0701666	-0.0839589	-0.688295	0.567718	0.722428	0	0	-0.121986	-0.267843	0.195442	0.673234	1.42599	0	0
1.32	-0.158449	1.30962	-1.40826	1.04512	0.0888748	0.95264	0.0339863	-0.0864133	-0.113446	1.3015	-0.478053	0	0	-0.193727	-0.0379109	-0.363114	0.297987	-0.197998	0	0	-0.368384	0.0834662	-0.114652	-0.0696706	-0.0852395	-0.687727	0.570761	0.721144	0	0	-0.110417	-0.270621	0.19453	0.678166	1.43333	0	0
1.33	-0.180843	1.31092	-1.38202	1.04536	0.0798453	0.953247	0.0635317	-0.083104	-0.115769	1.30064	-0.468076	0	0	-0.203491	-0.045968	-0.365659	0.296112	-0.192548	0	0	-0.366789	0.0925973	-0.116533	-0.0703941	-0.0865648	-0.686609	0.574727	0.719474	0	0	-0.0980739	-0.272512	0.19143	0.683934	1.44078	0	0
1.34	-0.202881	1.31203	-1.35723	1.04543	0.0707149	0.953797	0.091688	-0.0796915	-0.116773	1.29508	-0.457496	0	0	-0.213687	-0.0539003	-0.368757	0.293115	-0.187934	0	0	-0.364962	0.101194	-0.117407	-0.0710229	-0.0880846	-0.685065	0.577811	0.71751	0	0	-0.0855056	-0.27292	0.184927	0.689963	1.44391	0	0
1.35	-0.223984	1.31212	-1.33263	1.04551	0.0616835	0.954321	0.11715	-0.0760527	-0.11895	1.28559	-0.444243	0	0	-0.224917	-0.0616354	-0.37005	0.289107	-0.183798	0	0	-0.36429	0.109733	-0.11902	-0.0706612	-0.0895369	-0.683278	0.580144	0.714933	0	0	-0.0737663	-0.273698	0.177356	0.697884	1.44608	0	0
1.36	-0.241147	1.31101	-1.31151	1.04557	0.0528183	0.954812	0.139609	-0.0732199	-0.122242	1.27277	-0.429657	0	0	-0.237503	-0.0683049	-0.370955	0.284853	-0.18028	0	0	-0.365234	0.117428	-0.121535	-0.06905	-0.0906096	-0.681424	0.582042	0.712446	0	0	-0.0632896	-0.276026	0.170811	0.708038	1.44907	0	0
1.37	-0.256537	1.30978	-1.29235	1.04555	0.0440674	0.955134	0.160592	-0.071008	-0.125627	1.25598	-0.412949	0	0	-0.250613	-0.0743107	-0.371165	0.280195	-0.176149	0	0	-0.366879	0.124445	-0.123961	-0.0664429	-0.0914462	-0.679329	0.583585	0.709616	0	0	-0.0537558	-0.278846	0.163455	0.720387	1.45273	0	0
1.38	-0.271124	1.30877	-1.27441	1.04543	0.0353793	0.955288	0.179768	-0.0687302	-0.128582	1.23463	-0.391843	0	0	-0.264083	-0.0796105	-0.37064	0.274447	-0.170638	0	0	-0.368758	0.13093	-0.126143	-0.0628858	-0.0922978	-0.676713	0.584546	0.706001	0	0	-0.0446796	-0.280562	0.152634	0.734347	1.45533	0	0
1.39	-0.284071	1.30846	-1.25871	1.0452	0.0266945	0.95524	0.197889	-0.0667574	-0.130661	1.21008	-0.370453	0	0	-0.276943	-0.0839957	-0.371119	0.268798	-0.165032	0	0	-0.369936	0.1365	-0.128254	-0.0586844	-0.0931252	-0.673515	0.584807	0.702719	0	0	-0.0359371	-0.281681	0.140525	0.74874	1.45645	0	0
1.4	-0.297213	1.3088	-1.24318	1.04484	0.0180183	0.955008	0.214812	-0.0637009	-0.131071	1.18138	-0.34941	0	0	-0.288735	-0.0885003	-0.37187	0.263643	-0.159376	0	0	-0.370483	0.141574	-0.130134	-0.0541232	-0.0939371	-0.669517	0.584278	0.700307	0	0	-0.0276354	-0.282706	0.128161	0.763833	1.45702	0	0
1.41	-0.309101	1.30919	-1.22856	1.04442	0.00940728	0.954656	0.229156	-0.0599795	-0.129767	1.14702	-0.32829	0	0	-0.300076	-0.0930907	-0.371742	0.258892	-0.152991	0	0	-0.371127	0.146243	-0.13271	-0.0486667	-0.0946704	-0.665199	0.582951	0.697559	0	0	-0.0199503	-0.283894	0.115432	0.779714	1.45772	0	0
1.42	-0.318487	1.31005	-1.21623	1.04394	0.000817398	0.954169	0.24125	-0.0560966	-0.126736	1.10753	-0.314411	0	0	-0.310776	-0.0970862	-0.371525	0.254673	-0.148197	0	0	-0.37169	0.150072	-0.134931	-0.0430483	-0.0949573	-0.662733	0.582042	0.694523	0	0	-0.0112732	-0.285882	0.105965	0.795246	1.45794	0	0
1.43	-0.325602	1.31031	-1.20616	1.04338	-0.0077669	0.953647	0.249303	-0.0515763	-0.121711	1.0606	-0.303053	0	0	-0.322195	-0.100777	-0.37086	0.250281	-0.142182	0	0	-0.373119	0.15319	-0.137225	-0.0370749	-0.0951967	-0.659833	0.580589	0.690907	0	0	-0.00298811	-0.287399	0.0948347	0.811691	1.4586	0	0
1.44	-0.33063	1.31156	-1.19858	1.04274	-0.0164564	0.952962	0.255533	-0.0478026	-0.115427	1.00819	-0.296062	0	0	-0.333065	-0.103338	-0.370377	0.245624	-0.136817	0	0	-0.373586	0.155249	-0.138735	-0.0320109	-0.0954409	-0.656969	0.579532	0.68801	0	0	0.00564335	-0.289063	0.0861299	0.826957	1.45969	0	0
1.45	-0.333204	1.31346	-1.19382	1.04204	-0.0252339	0.952131	0.259354	-0.0451848	-0.109016	0.950645	-0.291298	0	0	-0.343922	-0.104929	-0.369385	0.240548	-0.131639	0	0	-0.373556	0.156312	-0.139438	-0.02752	-0.0956864	-0.654367	0.578622	0.685496	0	0	0.0144539	-0.29077	0.0793149	0.841461	1.46169	0	0
